<mxfile host="drawio-plugin" modified="2023-06-23T07:59:49.303Z" agent="5.0 (Windows NT 6.2; Win64; x64) AppleWebKit/537.36 (KHTML, like Gecko) Chrome/104.0.5112.102 Safari/537.36" version="20.5.3" etag="tW7xt7vQdPSPZDWcAdxm" type="embed"><diagram id="jDhfRBhu6VY2eBmYlkRj" name="Page-1"><mxGraphModel dx="1035" dy="874" grid="1" gridSize="10" guides="1" tooltips="1" connect="1" arrows="1" fold="1" page="1" pageScale="1" pageWidth="850" pageHeight="1100" math="0" shadow="0"><root><mxCell id="0"/><mxCell id="1" parent="0"/><mxCell id="2" value="" style="rounded=0;whiteSpace=wrap;html=1;" vertex="1" parent="1"><mxGeometry x="160" y="120" width="520" height="80" as="geometry"/></mxCell><mxCell id="3" value="" style="rounded=1;whiteSpace=wrap;html=1;" vertex="1" parent="1"><mxGeometry x="210" y="140" width="120" height="60" as="geometry"/></mxCell></root></mxGraphModel></diagram></mxfile>